<svg xmlns="http://www.w3.org/2000/svg" xmlns:xlink="http://www.w3.org/1999/xlink" version="1.1" x="0px" y="0px" viewBox="0 0 100 125" enable-background="new 0 0 100 100" xml:space="preserve"><path fill="#ffffff" d="M91.271,3.515H18.45c-0.829,0-1.5,0.671-1.5,1.5v60.891l-9.281,9.282c-0.586,0.586-0.586,1.535,0,2.121  c0.293,0.293,0.677,0.439,1.061,0.439s0.768-0.146,1.061-0.439l11.567-11.567c0.314-0.314,0.473-0.751,0.434-1.193  c-0.335-3.753,0.042-7.485,1.12-11.093l5.194-17.391c0.223-0.747,0.724-1.362,1.409-1.732c0.687-0.37,1.475-0.451,2.221-0.229  c0.747,0.223,1.361,0.724,1.731,1.409s0.451,1.474,0.228,2.221l-3.251,10.884l-4.019,4.019c-0.586,0.586-0.586,1.535,0,2.121  c0.293,0.293,0.677,0.439,1.061,0.439s0.768-0.146,1.061-0.439L59.714,23.59c1.04-1.039,2.732-1.041,3.774,0  c1.04,1.041,1.04,2.734,0,3.774c0,0,0,0,0,0l-16.72,16.72c-0.586,0.585-0.586,1.536,0,2.121c0.586,0.586,1.535,0.586,2.121,0  l20.497-20.497c1.043-1.041,2.735-1.039,3.774,0c0.505,0.504,0.782,1.174,0.782,1.887s-0.277,1.383-0.782,1.887L52.664,49.981  c-0.586,0.586-0.586,1.535,0,2.121c0.293,0.293,0.677,0.439,1.061,0.439s0.768-0.146,1.061-0.439L71.506,35.38  c1.042-1.039,2.734-1.038,3.773,0.001c1.04,1.041,1.04,2.734,0,3.774l-5.662,5.662c-0.001,0.001-0.002,0.001-0.003,0.002  c0,0-0.001,0.001-0.001,0.001L58.559,55.876c-0.586,0.586-0.586,1.535,0,2.121c0.293,0.293,0.677,0.439,1.061,0.439  s0.768-0.146,1.061-0.439l11.054-11.054c0,0,0.001-0.001,0.001-0.001c1.041-1.041,2.734-1.041,3.775,0  c1.04,1.041,1.04,2.734,0,3.774L52.666,73.561c-3.585,3.585-7.634,6.678-12.035,9.193c-3.575,1.548-6.785,3.73-9.542,6.487  l-4.684,4.683c-0.586,0.586-0.586,1.535,0,2.121c0.292,0.293,0.677,0.439,1.061,0.439s0.768-0.146,1.061-0.439l4.684-4.683  c2.507-2.507,5.428-4.487,8.684-5.887c0.052-0.021,0.102-0.047,0.15-0.074c3.087-1.76,6.006-3.794,8.731-6.065h40.495  c0.828,0,1.5-0.672,1.5-1.5V5.015C92.771,4.187,92.099,3.515,91.271,3.515z M89.771,76.336H54.11  c0.225-0.218,0.455-0.432,0.677-0.654l10.937-10.937c3.458,1.927,7.28,3.53,11.418,4.738c0.141,0.04,0.281,0.06,0.421,0.06  c0.649,0,1.248-0.425,1.439-1.08c0.231-0.795-0.226-1.628-1.021-1.86c-3.624-1.056-6.981-2.433-10.047-4.067l9.698-9.698  c2.21-2.21,2.21-5.807,0-8.017c-0.686-0.686-1.511-1.133-2.382-1.393l2.151-2.151c2.21-2.21,2.21-5.807,0-8.017  c-0.686-0.686-1.511-1.133-2.381-1.394l0.261-0.261c1.071-1.071,1.661-2.495,1.661-4.009s-0.59-2.938-1.661-4.008  c-2.212-2.212-5.807-2.211-8.017,0l-0.262,0.262c-0.26-0.87-0.707-1.696-1.393-2.381c-2.212-2.212-5.807-2.21-8.017,0l-4.234,4.234  c0.163-5.764,1.94-10.193,1.962-10.246c0.314-0.766-0.051-1.642-0.816-1.957c-0.762-0.315-1.641,0.048-1.957,0.813  c-0.112,0.272-2.656,6.568-2.127,14.328l-4.227,4.227c-1.805-8.517-1.054-15.268-1.045-15.342c0.097-0.822-0.491-1.568-1.313-1.666  c-0.825-0.1-1.568,0.489-1.666,1.311c-0.041,0.343-0.94,8.309,1.523,18.198l-8.783,8.783l1.661-5.561  c0.453-1.514,0.288-3.114-0.462-4.504c-0.751-1.391-1.999-2.406-3.513-2.858c-1.513-0.452-3.114-0.288-4.505,0.463  s-2.406,1.999-2.858,3.513l-5.194,17.39c-0.031,0.104-0.056,0.21-0.086,0.314V6.515h69.82V76.336z"/></svg>